<svg id="Layer_1" data-name="Layer 1" xmlns="http://www.w3.org/2000/svg" xmlns:xlink="http://www.w3.org/1999/xlink" viewBox="0 0 717.44 310.96"><defs><style>.cls-1{font-size:228.78px;fill:none;font-family:BrushScriptMT, Brush Script MT;}.cls-2{fill:#0abf90;}.cls-3{fill:#0bcf82;}.cls-4{fill:#0ddf77;}.cls-5{fill:#11d87b;}.cls-6{fill:#23c388;}.cls-7{fill:#28c08d;}.cls-8{fill:#04b15d;}.cls-9{fill:#99c1b8;}.cls-10{fill:#52b495;}.cls-11{fill:#bbf7e9;}.cls-12{clip-path:url(#clip-path);}</style><clipPath id="clip-path" transform="translate(-300.22 -439.1)"><text class="cls-1" transform="translate(503.07 654.63)">erify</text></clipPath></defs><path class="cls-2" d="M359.81,602.75c-1.44,3-4,5.32-4.69,9.63,18.06-12.39,37.24-20.18,60.24-21.15-11,4.74-20.5,9.32-29.28,15.32-10.37,7.11-20,15.11-27.65,25.07-12.64,16.49-28.73,24.5-49.68,23.14-10.05-.65-10.12-.12-5.86-8.94q38.28-79.35,76.51-158.72c2.46-5.12,5.74-7.54,11.38-6.33.28,1.31-.75,1.71-1.59,2.18-4.92,2.78-7.63,6.85-8.8,12.52a31.42,31.42,0,0,1-5.06,11.79c-1.28,1.8-2.37,3.7-1.87,6,1.57,7.17-.12,14.25-.92,21.27-.54,4.75.84,8.86,1.95,13.13.63,2.45,2.67,2.69,4.83,1.82,1.35-.54,2.55-1.67,4.19-1,1.3,1.09,1,2.47.39,3.64-6.94,13.25-12.23,27.32-20,40.16C361.24,595.25,360.57,599,359.81,602.75Z" transform="translate(-300.22 -439.1)"/><path class="cls-3" d="M383.79,548.75c-2.76-.08-3.9,4-7,2.8-1.32-.51-3.66-.47-3.65-2.06,0-5.2-2.87-9.7-2-15.41,1.07-6.63,3.08-13.61.86-20.58-.41-1.31-.42-3.32.32-4.32,3.77-5.13,5.69-10.76,7.21-17a15.73,15.73,0,0,1,11.25-11.44c5.15-.06,10.29-.09,15.44-.21,4.38-.09,5.9,3.16,7.43,6.31q15.21,31.38,30.34,62.78,3.88,8.05,7.74,16.11c-1.76,1.62-3.77,1-5.67.47-6.39-1.69-12.9-1.19-19.36-.88-4,.19-7.63,1.39-7.89,6.44a121,121,0,0,0-24.88,6.08c-3.9-1-4.22-1.75-1.77-4.34.89-.94,2-1.65,2.86-2.65,4.32-3.29,9.58-4.39,14.53-6.19s5.1-2.08,2.94-6.65c-4.67-9.88-10-19.45-14.5-29.4-.65-1-.4-3.54-2.73-1.54-.29.34-.6.65-.91,1a143,143,0,0,0-10,20.23C384.15,548.46,384,548.6,383.79,548.75Z" transform="translate(-300.22 -439.1)"/><path class="cls-4" d="M459.88,582.86q14.43,29.57,28.87,59.14c1.31,2.68,2.6,5.38,3.89,8.08.62,1.3,2.07,2.76.81,4-.72.71-2.54.56-3.81.4-19.69-2.55-34.38-12.36-43.77-30-2.63-4.93-3.94-10.58-8-14.7l-.24-.67C443.88,599.4,450.35,589.84,459.88,582.86Z" transform="translate(-300.22 -439.1)"/><path class="cls-5" d="M418.81,571.79c-3.32-4.5.42-6,3.43-6.92,7.12-2.11,14.45-1.34,21.7-.53,2.63.29,5.06,1.66,7.79,1.42,6.44,3.1,13.38,5.28,19.35,10.22-3.9,2.33-8.31,2.85-11.44,5.77-2,3.86-6,5.6-8.79,8.74-5.28,6-8.86,13.24-13.84,19.46A62.5,62.5,0,0,1,418.89,630a14.09,14.09,0,0,1-2.51,1.61c-1.51.64-3.44,1.78-4.43-.06s1.31-2.25,2.41-3.13a23.57,23.57,0,0,0,5.43-5.75c6.81-7.86,11.45-17.05,16.17-26.2,3.83-7.41,7.82-14.74,16.46-19.17C441.18,572,430,571.77,418.81,571.79Z" transform="translate(-300.22 -439.1)"/><path class="cls-6" d="M419.79,622.71c-.83,4.13-4.73,5.59-8,9,4.82-.57,7.72-2.95,10.62-5.32,5.78-4.73,10.06-10.76,14.41-16.73a.66.66,0,0,1,.95-.21l0,.38c-13,23-31.74,32.35-57.46,28.82-.28,0-.53-.36-.79-.55-.1-2,1.05-1.93,2.43-1.44C396.45,637,409.36,633.22,419.79,622.71Z" transform="translate(-300.22 -439.1)"/><path class="cls-7" d="M395.77,571.67a4.06,4.06,0,0,1-2.3,2.26c-3,1.65-2.12,2.91.46,3.94-13.08,5.94-24.9,13.64-34.12,24.88-1.44-4.39.21-7.84,3.27-10.87.51,1.85,1,.82,1.64,0,7.28-8.61,16.71-14.36,26.46-19.64C392.56,571.54,394.06,570.45,395.77,571.67Z" transform="translate(-300.22 -439.1)"/><path class="cls-8" d="M437.8,609.42a2.58,2.58,0,0,1-.95.21c6.14-10.48,11.7-21.44,22.79-27.88l.24,1.11c-1,4.38-5.51,5.41-7.9,8.48-3.84,4.92-8,9.63-11,15.13C440.22,607.91,439,608.53,437.8,609.42Z" transform="translate(-300.22 -439.1)"/><path class="cls-9" d="M371.91,636.62a18.18,18.18,0,0,1-8.6-3.89l11.59,2.88C374.2,636.82,372.74,635.79,371.91,636.62Z" transform="translate(-300.22 -439.1)"/><path class="cls-10" d="M371.91,636.62c.73-1.14,2-.68,3-1,2.38.32,4.85,0,7.12,1-.94.26-1.92.45-2.43,1.44Z" transform="translate(-300.22 -439.1)"/><path class="cls-2" d="M393.92,526.79c-2.27,7.83-6.37,14.81-10.13,22C385.15,540.49,389.76,533.75,393.92,526.79Z" transform="translate(-300.22 -439.1)"/><path class="cls-11" d="M398.79,527.76c-1.27-.71-2.37-2.09-4.09-1,.58-.94,1.35-2.76,1.69-2.68C398.17,524.45,398.51,526.15,398.79,527.76Z" transform="translate(-300.22 -439.1)"/><g class="cls-12"><rect class="cls-3" x="202.85" width="514.59" height="310.96"/></g></svg>